<?xml version="1.0" encoding="UTF-8"?>
<svg xmlns="http://www.w3.org/2000/svg" xmlns:xlink="http://www.w3.org/1999/xlink" width="512" height="512" viewBox="0 0 60 60" version="1.1"><!-- Generator: Sketch 51.3 (57544) - http://www.bohemiancoding.com/sketch --><title>023 - Design on Computer</title><desc>Created with Sketch.</desc><defs/><g id="Page-1" stroke="none" stroke-width="1" fill="none" fill-rule="evenodd"><g id="023---Design-on-Computer" fill="#ffffff" fill-rule="nonzero"><path d="M57,0 L3,0 C1.34314575,-1.01453063e-16 2.02906125e-16,1.34314575 0,3 L0,45 C2.02906125e-16,46.6568542 1.34314575,48 3,48 L22,48 L22,52 C19.2399468,52.0033061 17.0033061,54.2399468 17,57 L17,59 C17,59.5522847 17.4477153,60 18,60 L42,60 C42.5522847,60 43,59.5522847 43,59 L43,57 C42.9966939,54.2399468 40.7600532,52.0033061 38,52 L38,48 L57,48 C58.6568542,48 60,46.6568542 60,45 L60,3 C60,1.34314575 58.6568542,1.01453063e-16 57,0 Z M2,3 C2,2.44771525 2.44771525,2 3,2 L57,2 C57.5522847,2 58,2.44771525 58,3 L58,38 L2,38 L2,3 Z M41,57 L41,58 L19,58 L19,57 C19,55.3431458 20.3431458,54 22,54 L38,54 C39.6568542,54 41,55.3431458 41,57 Z M36,52 L24,52 L24,48 L36,48 L36,52 Z M58,45 C58,45.5522847 57.5522847,46 57,46 L3,46 C2.44771525,46 2,45.5522847 2,45 L2,40 L58,40 L58,45 Z" id="Shape"/><path d="M28,44 L32,44 C32.5522847,44 33,43.5522847 33,43 C33,42.4477153 32.5522847,42 32,42 L28,42 C27.4477153,42 27,42.4477153 27,43 C27,43.5522847 27.4477153,44 28,44 Z" id="Shape"/><path d="M53,50 C49.1358343,50.0044086 46.0044086,53.1358343 46,57 L46,58 C46,59.1045695 46.8954305,60 48,60 L58,60 C59.1045695,60 60,59.1045695 60,58 L60,57 C59.9955914,53.1358343 56.8641657,50.0044086 53,50 Z M58,58 L48,58 L48,57 C48.0029983,54.6248992 49.6735832,52.5784327 52,52.1 L52,54 C52,54.5522847 52.4477153,55 53,55 C53.5522847,55 54,54.5522847 54,54 L54,52.1 C56.3264168,52.5784327 57.9970017,54.6248992 58,57 L58,58 Z" id="Shape"/><path d="M8,5 C8,4.44771525 7.55228475,4 7,4 L5,4 C4.44771525,4 4,4.44771525 4,5 C4,5.55228475 4.44771525,6 5,6 L7,6 C7.55228475,6 8,5.55228475 8,5 Z" id="Shape"/><path d="M11,6 L17,6 C17.5522847,6 18,5.55228475 18,5 C18,4.44771525 17.5522847,4 17,4 L11,4 C10.4477153,4 10,4.44771525 10,5 C10,5.55228475 10.4477153,6 11,6 Z" id="Shape"/><path d="M51,10 L9,10 C7.8954305,10 7,10.8954305 7,12 L7,18 C7,19.1045695 7.8954305,20 9,20 L51,20 C52.1045695,20 53,19.1045695 53,18 L53,12 C53,10.8954305 52.1045695,10 51,10 Z M51,18 L45,18 L45,16 C45,15.4477153 44.5522847,15 44,15 C43.4477153,15 43,15.4477153 43,16 L43,18 L41,18 L41,16 C41,15.4477153 40.5522847,15 40,15 C39.4477153,15 39,15.4477153 39,16 L39,18 L37,18 L37,16 C37,15.4477153 36.5522847,15 36,15 C35.4477153,15 35,15.4477153 35,16 L35,18 L33,18 L33,16 C33,15.4477153 32.5522847,15 32,15 C31.4477153,15 31,15.4477153 31,16 L31,18 L29,18 L29,16 C29,15.4477153 28.5522847,15 28,15 C27.4477153,15 27,15.4477153 27,16 L27,18 L25,18 L25,16 C25,15.4477153 24.5522847,15 24,15 C23.4477153,15 23,15.4477153 23,16 L23,18 L21,18 L21,16 C21,15.4477153 20.5522847,15 20,15 C19.4477153,15 19,15.4477153 19,16 L19,18 L17,18 L17,16 C17,15.4477153 16.5522847,15 16,15 C15.4477153,15 15,15.4477153 15,16 L15,18 L13,18 L13,16 C13,15.4477153 12.5522847,15 12,15 C11.4477153,15 11,15.4477153 11,16 L11,18 L9,18 L9,12 L51,12 L51,18 Z" id="Shape"/><path d="M48,23 L19,23 C18.984,23 18.971,23.008 18.955,23.009 C18.8816317,23.0101336 18.8085769,23.0188465 18.737,23.035 L8.7,25.772 C7.69478962,26.0455071 6.99721531,26.9582447 6.99721531,28 C6.99721531,29.0417553 7.69478962,29.9544929 8.7,30.228 L18.735,32.965 C18.8214201,32.9882178 18.9105153,32.9999851 19,33 L48,33 C50.7614237,33 53,30.7614237 53,28 C53,25.2385763 50.7614237,23 48,23 Z M45.813,27 L31,27 C30.4477153,27 30,27.4477153 30,28 C30,28.5522847 30.4477153,29 31,29 L45.813,29 C45.4391918,29.90635 44.71935,30.6261918 43.813,31 L22,31 C22.4524199,30.4129747 22.760692,29.7279257 22.9,29 L26,29 C26.5522847,29 27,28.5522847 27,28 C27,27.4477153 26.5522847,27 26,27 L22.9,27 C22.760692,26.2720743 22.4524199,25.5870253 22,25 L43.814,25 C44.719847,25.3742154 45.4392377,26.093966 45.813,27 Z M18.936,25.054 C20.1755056,25.503828 21.0008695,26.6813949 21.0008695,28 C21.0008695,29.3186051 20.1755056,30.496172 18.936,30.946 L15.525,30.016 C16.1582807,28.746599 16.1582807,27.253401 15.525,25.984 L18.936,25.054 Z M9,28 C8.99918187,27.8598691 9.09276643,27.7367316 9.228,27.7 L13.577,26.514 C13.8299353,26.9704049 13.9746561,27.4788097 14,28 C13.974353,28.5205077 13.8296416,29.0281949 13.577,29.484 L9.228,28.3 C9.09276643,28.2632684 8.99918187,28.1401309 9,28 Z M48,31 L47,31 C48.3333333,29.2222222 48.3333333,26.7777778 47,25 L48,25 C49.6568542,25 51,26.3431458 51,28 C51,29.6568542 49.6568542,31 48,31 Z" id="Shape"/><circle id="Oval" cx="48" cy="15" r="1"/></g></g></svg>
