<?xml version="1.0" encoding="UTF-8"?>
<svg xmlns="http://www.w3.org/2000/svg" xmlns:xlink="http://www.w3.org/1999/xlink" width="512" height="512" viewBox="0 0 60 60" version="1.1"><!-- Generator: Sketch 51.3 (57544) - http://www.bohemiancoding.com/sketch --><title>041 - Wireframe</title><desc>Created with Sketch.</desc><defs/><g id="Page-1" stroke="none" stroke-width="1" fill="none" fill-rule="evenodd"><g id="041---Wireframe" fill="#ffffff" fill-rule="nonzero"><path d="M57,0 L29,0 C27.3431458,-1.01453063e-16 26,1.34314575 26,3 L26,12 L4,12 C1.790861,12 2.705415e-16,13.790861 0,16 L0,46 C2.705415e-16,48.209139 1.790861,50 4,50 L18.128,50 L16.311,54.088 C14.8447703,54.4508182 13.8769342,55.8471459 14.0517829,57.347444 C14.2266316,58.8477422 15.4896314,59.9840824 17,60 L33,60 C34.5103686,59.9840824 35.7733684,58.8477422 35.9482171,57.347444 C36.1230658,55.8471459 35.1552297,54.4508182 33.689,54.088 L31.872,50 L46,50 C48.209139,50 50,48.209139 50,46 L50,39 L57,39 C58.6568542,39 60,37.6568542 60,36 L60,3 C60,1.34314575 58.6568542,1.01453063e-16 57,0 Z M29,2 L57,2 C57.5522847,2 58,2.44771525 58,3 L58,8 L28,8 L28,3 C28,2.44771525 28.4477153,2 29,2 Z M33,58 L17,58 C16.4477153,58 16,57.5522847 16,57 C16,56.4477153 16.4477153,56 17,56 L33,56 C33.5522847,56 34,56.4477153 34,57 C34,57.5522847 33.5522847,58 33,58 Z M31.461,54 L18.539,54 L20.316,50 L29.684,50 L31.461,54 Z M46,48 L26,48 L26,47 C26,46.4477153 25.5522847,46 25,46 C24.4477153,46 24,46.4477153 24,47 L24,48 L4,48 C2.8954305,48 2,47.1045695 2,46 L2,43 L48,43 L48,46 C48,47.1045695 47.1045695,48 46,48 Z M48,41 L2,41 L2,16 C2,14.8954305 2.8954305,14 4,14 L26,14 L26,36 C26,37.6568542 27.3431458,39 29,39 L48,39 L48,41 Z M57,37 L29,37 C28.4477153,37 28,36.5522847 28,36 L28,10 L58,10 L58,36 C58,36.5522847 57.5522847,37 57,37 Z" id="Shape"/><circle id="Oval" cx="31" cy="5" r="1"/><circle id="Oval" cx="35" cy="5" r="1"/><circle id="Oval" cx="39" cy="5" r="1"/><path d="M55.949,12.684 C55.949,12.671 55.934,12.662 55.929,12.65 C55.9023328,12.585587 55.8688061,12.5242333 55.829,12.467 C55.8000823,12.4145081 55.766621,12.3646508 55.729,12.318 C55.6844235,12.2771819 55.636599,12.2400594 55.586,12.207 C55.5342583,12.1648921 55.4786816,12.1277294 55.42,12.096 C55.3679395,12.0767958 55.3144386,12.0617487 55.26,12.051 C55.1892495,12.0282506 55.1160898,12.0138201 55.042,12.008 C55.029,12.008 55.018,12 55.005,12 L31,12 C30.987,12 30.976,12.007 30.963,12.008 C30.8889102,12.0138201 30.8157505,12.0282506 30.745,12.051 C30.6905614,12.0617487 30.6370605,12.0767958 30.585,12.096 C30.5263184,12.1277294 30.4707417,12.1648921 30.419,12.207 C30.368401,12.2400594 30.3205765,12.2771819 30.276,12.318 C30.238379,12.3646508 30.2049177,12.4145081 30.176,12.467 C30.1361939,12.5242333 30.1026672,12.585587 30.076,12.65 C30.071,12.662 30.061,12.671 30.056,12.684 C30.0453409,12.736758 30.0386555,12.7902415 30.036,12.844 C30.0199511,12.8949819 30.0079144,12.9471409 30,13 L30,21 C30.0062772,21.0527244 30.0166417,21.1048814 30.031,21.156 C30.0336555,21.2097585 30.0403409,21.263242 30.051,21.316 C30.056,21.331 30.066,21.342 30.072,21.356 C30.0881376,21.3904947 30.10651,21.4238991 30.127,21.456 C30.1631884,21.5279723 30.2082017,21.5951563 30.261,21.656 C30.2879886,21.6863215 30.3170591,21.7147238 30.348,21.741 C30.4088563,21.7937818 30.4760381,21.8387937 30.548,21.875 C30.5803368,21.8938871 30.6137243,21.9109148 30.648,21.926 C30.7598962,21.9717394 30.8791584,21.9968116 31,22 L55,22 C55.120319,21.9976462 55.2392253,21.9735939 55.351,21.929 C55.3852757,21.9139148 55.4186632,21.8968871 55.451,21.878 C55.5229619,21.8417937 55.5901437,21.7967818 55.651,21.744 C55.6819409,21.7177238 55.7110114,21.6893215 55.738,21.659 C55.7907983,21.5981563 55.8358116,21.5309723 55.872,21.459 C55.89249,21.4268991 55.9108624,21.3934947 55.927,21.359 C55.933,21.345 55.943,21.334 55.948,21.319 C55.9586591,21.266242 55.9653445,21.2127585 55.968,21.159 C55.9828497,21.1069284 55.9935498,21.053762 56,21 L56,13 C55.9937228,12.9472756 55.9833583,12.8951186 55.969,12.844 C55.9663445,12.7902415 55.9596591,12.736758 55.949,12.684 Z M32,14.387 L39.839,17 L32,19.613 L32,14.387 Z M37.161,14 L48.839,14 L43,15.946 L37.161,14 Z M43,18.054 L48.839,20 L37.161,20 L43,18.054 Z M46.161,17 L54,14.387 L54,19.613 L46.161,17 Z" id="Shape"/><path d="M31,26 L42,26 C42.5522847,26 43,25.5522847 43,25 C43,24.4477153 42.5522847,24 42,24 L31,24 C30.4477153,24 30,24.4477153 30,25 C30,25.5522847 30.4477153,26 31,26 Z" id="Shape"/><path d="M55,24 L46,24 C45.4477153,24 45,24.4477153 45,25 C45,25.5522847 45.4477153,26 46,26 L55,26 C55.5522847,26 56,25.5522847 56,25 C56,24.4477153 55.5522847,24 55,24 Z" id="Shape"/><path d="M55,28 L31,28 C30.4477153,28 30,28.4477153 30,29 C30,29.5522847 30.4477153,30 31,30 L55,30 C55.5522847,30 56,29.5522847 56,29 C56,28.4477153 55.5522847,28 55,28 Z" id="Shape"/><path d="M38,32 L31,32 C30.4477153,32 30,32.4477153 30,33 C30,33.5522847 30.4477153,34 31,34 L38,34 C38.5522847,34 39,33.5522847 39,33 C39,32.4477153 38.5522847,32 38,32 Z" id="Shape"/><path d="M55,32 L43,32 C42.4477153,32 42,32.4477153 42,33 C42,33.5522847 42.4477153,34 43,34 L55,34 C55.5522847,34 56,33.5522847 56,33 C56,32.4477153 55.5522847,32 55,32 Z" id="Shape"/><path d="M15,16 L6,16 C5.44771525,16 5,16.4477153 5,17 C5,17.5522847 5.44771525,18 6,18 L15,18 C15.5522847,18 16,17.5522847 16,17 C16,16.4477153 15.5522847,16 15,16 Z" id="Shape"/><path d="M21,16 L19,16 C18.4477153,16 18,16.4477153 18,17 C18,17.5522847 18.4477153,18 19,18 L21,18 C21.5522847,18 22,17.5522847 22,17 C22,16.4477153 21.5522847,16 21,16 Z" id="Shape"/></g></g></svg>
