<?xml version="1.0" encoding="UTF-8"?>
<svg xmlns="http://www.w3.org/2000/svg" xmlns:xlink="http://www.w3.org/1999/xlink" width="512" height="512" viewBox="0 0 60 60" version="1.1"><!-- Generator: Sketch 51.3 (57544) - http://www.bohemiancoding.com/sketch --><title>050 - Web Design</title><desc>Created with Sketch.</desc><defs/><g id="Page-1" stroke="none" stroke-width="1" fill="none" fill-rule="evenodd"><g id="050---Web-Design" fill="#ffffff" fill-rule="nonzero"><path d="M57,0 L3,0 C1.34314575,-1.01453063e-16 2.02906125e-16,1.34314575 0,3 L0,45 C2.02906125e-16,46.6568542 1.34314575,48 3,48 L22,48 L22,52 C19.2399468,52.0033061 17.0033061,54.2399468 17,57 L17,59 C17,59.5522847 17.4477153,60 18,60 L42,60 C42.5522847,60 43,59.5522847 43,59 L43,57 C42.9966939,54.2399468 40.7600532,52.0033061 38,52 L38,48 L57,48 C58.6568542,48 60,46.6568542 60,45 L60,3 C60,1.34314575 58.6568542,1.01453063e-16 57,0 Z M2,10 L58,10 L58,38 L2,38 L2,10 Z M3,2 L57,2 C57.5522847,2 58,2.44771525 58,3 L58,8 L2,8 L2,3 C2,2.44771525 2.44771525,2 3,2 Z M41,57 L41,58 L19,58 L19,57 C19,55.3431458 20.3431458,54 22,54 L38,54 C39.6568542,54 41,55.3431458 41,57 Z M36,52 L24,52 L24,48 L36,48 L36,52 Z M58,45 C58,45.5522847 57.5522847,46 57,46 L3,46 C2.44771525,46 2,45.5522847 2,45 L2,40 L58,40 L58,45 Z" id="Shape"/><path d="M28,44 L32,44 C32.5522847,44 33,43.5522847 33,43 C33,42.4477153 32.5522847,42 32,42 L28,42 C27.4477153,42 27,42.4477153 27,43 C27,43.5522847 27.4477153,44 28,44 Z" id="Shape"/><path d="M53,50 C49.1360624,50.0049584 46.0049584,53.1360624 46,57 L46,58 C46,59.1045695 46.8954305,60 48,60 L58,60 C59.1045695,60 60,59.1045695 60,58 L60,57 C59.9950416,53.1360624 56.8639376,50.0049584 53,50 Z M58,58 L48,58 L48,57 C48.0029983,54.6248992 49.6735832,52.5784327 52,52.1 L52,54 C52,54.5522847 52.4477153,55 53,55 C53.5522847,55 54,54.5522847 54,54 L54,52.1 C56.3264168,52.5784327 57.9970017,54.6248992 58,57 L58,58 Z" id="Shape"/><path d="M5,6 L7,6 C7.55228475,6 8,5.55228475 8,5 C8,4.44771525 7.55228475,4 7,4 L5,4 C4.44771525,4 4,4.44771525 4,5 C4,5.55228475 4.44771525,6 5,6 Z" id="Shape"/><path d="M11,6 L17,6 C17.5522847,6 18,5.55228475 18,5 C18,4.44771525 17.5522847,4 17,4 L11,4 C10.4477153,4 10,4.44771525 10,5 C10,5.55228475 10.4477153,6 11,6 Z" id="Shape"/><path d="M51.982,12.812 C51.9706396,12.777911 51.9572832,12.7445199 51.942,12.712 C51.9236938,12.6481466 51.8985481,12.5864559 51.867,12.528 C51.8390041,12.4733917 51.8054964,12.4217898 51.767,12.374 C51.726558,12.3237247 51.6809776,12.2778092 51.631,12.237 C51.585046,12.1989197 51.5354766,12.1654269 51.483,12.137 C51.423798,12.1042483 51.3614929,12.0774504 51.297,12.057 C51.2382444,12.0394513 51.1779854,12.0273995 51.117,12.021 C51.0785244,12.0113408 51.0394332,12.0043244 51,12 L9,12 C8.96361725,12.0053098 8.9275607,12.0126547 8.892,12.022 C8.82685828,12.0279941 8.76251398,12.0407289 8.7,12.06 C8.64006329,12.0793987 8.58213017,12.1045142 8.527,12.135 C8.41599652,12.1941956 8.31804976,12.2751377 8.239,12.373 C8.19837841,12.4221355 8.16254866,12.475043 8.132,12.531 C8.10077789,12.5891397 8.07596561,12.6504998 8.058,12.714 C8.04253617,12.7464411 8.02917525,12.7798434 8.018,12.814 C8.01528548,12.8472781 8.01528548,12.8807219 8.018,12.914 C8.01065851,12.9423694 8.00465191,12.9710676 8,13 L8,21 C8.0047911,21.0309651 8.0111324,21.0616703 8.019,21.092 C8.01628548,21.1252781 8.01628548,21.1587219 8.019,21.192 C8.03046589,21.2299099 8.04449831,21.2669956 8.061,21.303 C8.07652902,21.3531385 8.09523349,21.4022377 8.117,21.45 C8.15033327,21.513255 8.19057929,21.5726179 8.237,21.627 C8.26751889,21.6664418 8.30094549,21.7035453 8.337,21.738 C8.39532567,21.7876662 8.45906091,21.8306037 8.527,21.866 C8.56374079,21.8898041 8.60180189,21.9115056 8.641,21.931 C8.75533263,21.9761315 8.87708303,21.999532 9,22 L51,22 C51.1245192,21.99876 51.2476816,21.9739918 51.363,21.927 C51.4021981,21.9075056 51.4402592,21.8858041 51.477,21.862 C51.5449391,21.8266037 51.6086743,21.7836662 51.667,21.734 C51.7030545,21.6995453 51.7364811,21.6624418 51.767,21.623 C51.8134207,21.5686179 51.8536667,21.509255 51.887,21.446 C51.9087665,21.3982377 51.927471,21.3491385 51.943,21.299 C51.9595017,21.2629956 51.9735341,21.2259099 51.985,21.188 C51.9877145,21.1547219 51.9877145,21.1212781 51.985,21.088 C51.9913953,21.0589216 51.9964009,21.029555 52,21 L52,13 C51.9952089,12.9690349 51.9888676,12.9383297 51.981,12.908 C51.9838343,12.8760749 51.9841687,12.8439772 51.982,12.812 Z M10,14.209 L24.655,17 L10,19.791 L10,14.209 Z M19.6,14 L40.41,14 L30,15.982 L19.6,14 Z M30,18.018 L40.405,20 L19.6,20 L30,18.018 Z M35.345,17 L50,14.209 L50,19.791 L35.345,17 Z" id="Shape"/><path d="M19,25 L9,25 C8.44771525,25 8,25.4477153 8,26 C8,26.5522847 8.44771525,27 9,27 L19,27 C19.5522847,27 20,26.5522847 20,26 C20,25.4477153 19.5522847,25 19,25 Z" id="Shape"/><path d="M19,29 L9,29 C8.44771525,29 8,29.4477153 8,30 C8,30.5522847 8.44771525,31 9,31 L19,31 C19.5522847,31 20,30.5522847 20,30 C20,29.4477153 19.5522847,29 19,29 Z" id="Shape"/><path d="M19,33 L9,33 C8.44771525,33 8,33.4477153 8,34 C8,34.5522847 8.44771525,35 9,35 L19,35 C19.5522847,35 20,34.5522847 20,34 C20,33.4477153 19.5522847,33 19,33 Z" id="Shape"/><path d="M35,25 L25,25 C24.4477153,25 24,25.4477153 24,26 C24,26.5522847 24.4477153,27 25,27 L35,27 C35.5522847,27 36,26.5522847 36,26 C36,25.4477153 35.5522847,25 35,25 Z" id="Shape"/><path d="M35,29 L25,29 C24.4477153,29 24,29.4477153 24,30 C24,30.5522847 24.4477153,31 25,31 L35,31 C35.5522847,31 36,30.5522847 36,30 C36,29.4477153 35.5522847,29 35,29 Z" id="Shape"/><path d="M35,33 L25,33 C24.4477153,33 24,33.4477153 24,34 C24,34.5522847 24.4477153,35 25,35 L35,35 C35.5522847,35 36,34.5522847 36,34 C36,33.4477153 35.5522847,33 35,33 Z" id="Shape"/><path d="M51,25 L41,25 C40.4477153,25 40,25.4477153 40,26 C40,26.5522847 40.4477153,27 41,27 L51,27 C51.5522847,27 52,26.5522847 52,26 C52,25.4477153 51.5522847,25 51,25 Z" id="Shape"/><path d="M51,29 L41,29 C40.4477153,29 40,29.4477153 40,30 C40,30.5522847 40.4477153,31 41,31 L51,31 C51.5522847,31 52,30.5522847 52,30 C52,29.4477153 51.5522847,29 51,29 Z" id="Shape"/><path d="M51,33 L41,33 C40.4477153,33 40,33.4477153 40,34 C40,34.5522847 40.4477153,35 41,35 L51,35 C51.5522847,35 52,34.5522847 52,34 C52,33.4477153 51.5522847,33 51,33 Z" id="Shape"/></g></g></svg>
